<?xml version="1.0" standalone="no"?>
<!DOCTYPE svg PUBLIC "-//W3C//DTD SVG 20010904//EN"
 "http://www.w3.org/TR/2001/REC-SVG-20010904/DTD/svg10.dtd">
<svg version="1.0" xmlns="http://www.w3.org/2000/svg"
 width="324.000000pt" height="324.000000pt" viewBox="0 0 324.000000 324.000000"
 preserveAspectRatio="xMidYMid meet">
<metadata>
Created by potrace 1.11, written by Peter Selinger 2001-2013
</metadata>
<g transform="translate(0.000000,324.000000) scale(0.100000,-0.100000)"
fill="#000000" stroke="none">
<path d="M0 1620 l0 -1620 508 0 507 0 0 695 c0 382 2 695 5 695 3 0 12 -11
21 -23 23 -32 826 -1230 874 -1304 l40 -62 612 0 613 -1 -81 112 c-98 138 -99
140 -149 208 -22 30 -46 64 -54 75 -65 90 -785 1092 -842 1170 l-72 100 21 30
c12 16 27 37 34 45 7 8 103 134 214 280 111 146 252 330 313 410 60 80 144
190 185 245 41 55 78 102 81 105 3 3 61 79 129 170 69 91 147 193 174 228 l49
62 -609 0 -608 -1 -240 -346 c-132 -190 -267 -385 -299 -432 -33 -47 -108
-156 -168 -241 -59 -85 -113 -163 -120 -172 -7 -10 -35 -51 -64 -93 -28 -41
-54 -70 -56 -63 -2 7 -4 313 -3 681 l1 667 -508 0 -508 0 0 -1620z"/>
</g>
</svg>
