<?xml version="1.0" standalone="no"?>
<!DOCTYPE svg PUBLIC "-//W3C//DTD SVG 20010904//EN"
 "http://www.w3.org/TR/2001/REC-SVG-20010904/DTD/svg10.dtd">
<svg version="1.0" xmlns="http://www.w3.org/2000/svg"
 width="160.000000pt" height="160.000000pt" viewBox="0 0 160.000000 160.000000"
 preserveAspectRatio="xMidYMid meet">
<metadata>
Created by potrace 1.11, written by Peter Selinger 2001-2013
</metadata>
<g transform="translate(0.000000,160.000000) scale(0.100000,-0.100000)"
fill="#000000" stroke="none">
<path d="M1048 1565 c-2 -2 -23 -6 -48 -9 -71 -10 -114 -18 -125 -25 -5 -3
-19 -7 -30 -8 -32 -5 -179 -55 -190 -64 -5 -5 -14 -9 -21 -9 -25 0 -275 -127
-294 -149 -3 -3 -31 -23 -64 -44 -69 -46 -201 -174 -240 -234 -26 -39 -27 -43
-12 -71 20 -38 65 -76 135 -112 31 -16 74 -46 96 -66 22 -20 56 -50 75 -68 19
-18 47 -40 61 -49 14 -9 52 -43 86 -74 33 -32 86 -80 118 -108 32 -27 65 -57
74 -66 9 -8 34 -29 56 -45 21 -16 57 -46 80 -66 22 -21 43 -38 48 -38 4 0 7
-6 7 -13 0 -14 20 -33 85 -81 22 -17 42 -32 45 -35 13 -15 119 -79 150 -91 19
-7 40 -17 45 -21 13 -10 45 14 50 37 2 11 8 39 13 64 21 90 25 214 28 740 2
294 4 553 5 575 5 122 -1 128 -129 131 -56 1 -102 0 -104 -1z"/>
</g>
</svg>
