<svg class="icon-color" width="164" height="164" viewBox="0 0 164 164" fill="none" xmlns="http://www.w3.org/2000/svg">
<path d="M40.8879 147.454C35.0035 143.175 36.2071 72.116 37.5445 37.1215C94.2488 32.842 120.907 63.4231 127.148 79.2486C124.027 82.8149 111.501 95.1632 86.3583 116.026C61.2158 136.889 45.5687 145.671 40.8879 147.454Z" fill="url(#paint0_linear_6_80)"/>
<path fill-rule="evenodd" clip-rule="evenodd" d="M37.3939 35.1272C94.969 30.7819 122.445 61.8706 129.009 78.5149C129.283 79.2111 129.146 80.0024 128.653 80.5656C125.422 84.2581 112.793 96.6903 87.6355 117.565C62.4535 138.461 46.5993 147.419 41.5999 149.323C40.9683 149.564 40.2581 149.469 39.7115 149.072C38.8778 148.465 38.3639 147.501 38.0161 146.655C37.6397 145.739 37.322 144.614 37.0458 143.346C36.4917 140.804 36.0524 137.444 35.7027 133.507C35.0022 125.62 34.6421 115.183 34.5081 103.83C34.2401 81.1109 34.8765 54.5619 35.5459 37.0452C35.5847 36.029 36.3799 35.2038 37.3939 35.1272ZM39.4757 38.9924C38.8334 56.4533 38.2499 81.9147 38.5079 103.782C38.6414 115.103 39.0001 125.42 39.6871 133.154C40.0312 137.028 40.4528 140.194 40.954 142.494C41.1817 143.539 41.4152 144.354 41.6442 144.954C47.4339 142.253 62.267 133.418 85.0812 114.487C108.34 95.1875 120.714 83.2442 124.813 78.8459C118.151 63.6819 92.7184 35.6294 39.4757 38.9924Z" fill="#FF9200"/>
<path fill-rule="evenodd" clip-rule="evenodd" d="M72.7265 124.229C62.2326 132.249 54.0959 137.598 48.4903 140.875C46.6553 138.421 45.5687 135.375 45.5687 132.075C45.5687 123.95 52.155 117.364 60.2797 117.364C65.5201 117.364 70.1206 120.104 72.7265 124.229Z" fill="url(#paint1_linear_6_80)"/>
<path fill-rule="evenodd" clip-rule="evenodd" d="M71.13 122.14C70.8183 121.8 70.4908 121.475 70.1487 121.165C67.5387 118.802 64.0773 117.364 60.2797 117.364C52.155 117.364 45.5687 123.95 45.5687 132.075C45.5687 133.943 45.917 135.73 46.5524 137.375C46.6353 137.589 46.723 137.801 46.8155 138.011C47.2663 139.032 47.8298 139.992 48.4903 140.875C54.0959 137.598 62.2326 132.249 72.7265 124.229C72.2565 123.485 71.7217 122.786 71.13 122.14ZM66.876 123.634C65.0558 122.209 62.7659 121.364 60.2797 121.364C54.3642 121.364 49.5687 126.159 49.5687 132.075C49.5687 133.184 49.7364 134.252 50.0479 135.256C54.4834 132.485 60.1113 128.677 66.876 123.634Z" fill="#F64800"/>
<path d="M37.5445 17.0611C31.1251 25.6202 34.8697 33.5553 37.5445 36.4529C90.5042 32.1733 120.238 62.7545 128.485 78.58C140.254 77.5101 141.859 69.6642 141.19 65.875C116.583 24.6841 61.84 16.1695 37.5445 17.0611Z" fill="url(#paint2_linear_6_80)"/>
<path fill-rule="evenodd" clip-rule="evenodd" d="M38.5969 19.0295C34.1308 25.6411 36.3613 31.6064 38.4231 34.3795C90.3529 30.6011 120.27 59.8485 129.598 76.4354C134.175 75.7633 136.591 73.9273 137.861 72.1043C139.19 70.195 139.446 68.038 139.271 66.5635C127.265 46.6923 107.99 34.5967 88.5697 27.5677C69.5611 20.6876 50.5843 18.7272 38.5969 19.0295ZM89.9311 23.8065C109.999 31.07 130.291 43.73 142.907 64.8492C143.032 65.058 143.118 65.2878 143.16 65.5274C143.57 67.8484 143.285 71.3146 141.143 74.39C138.95 77.5402 135.011 79.995 128.666 80.5717C127.859 80.6451 127.087 80.2235 126.712 79.5042C118.779 64.2825 89.7482 34.2409 37.7055 38.4464C37.093 38.4959 36.4917 38.261 36.0748 37.8094C32.9562 34.4309 28.7779 25.4165 35.9444 15.8611C36.3067 15.3781 36.8678 15.0846 37.4711 15.0624C49.8505 14.6081 69.8686 16.5449 89.9311 23.8065Z" fill="#893500"/>
<path d="M108.425 81.2547C108.425 89.3794 101.839 95.9657 93.7138 95.9657C85.5892 95.9657 79.0028 89.3794 79.0028 81.2547C79.0028 73.13 85.5892 66.5436 93.7138 66.5436C101.839 66.5436 108.425 73.13 108.425 81.2547Z" fill="url(#paint3_linear_6_80)"/>
<path fill-rule="evenodd" clip-rule="evenodd" d="M93.7138 91.9657C99.6294 91.9657 104.425 87.1702 104.425 81.2547C104.425 75.3391 99.6294 70.5436 93.7138 70.5436C87.7983 70.5436 83.0028 75.3391 83.0028 81.2547C83.0028 87.1702 87.7983 91.9657 93.7138 91.9657ZM93.7138 95.9657C101.839 95.9657 108.425 89.3794 108.425 81.2547C108.425 73.13 101.839 66.5436 93.7138 66.5436C85.5892 66.5436 79.0028 73.13 79.0028 81.2547C79.0028 89.3794 85.5892 95.9657 93.7138 95.9657Z" fill="#F64800"/>
<path d="M72.316 55.8447C72.316 63.9694 65.7296 70.5557 57.605 70.5557C49.4803 70.5557 42.8939 63.9694 42.8939 55.8447C42.8939 47.72 49.4803 41.1337 57.605 41.1337C65.7296 41.1337 72.316 47.72 72.316 55.8447Z" fill="url(#paint4_linear_6_80)"/>
<path fill-rule="evenodd" clip-rule="evenodd" d="M57.605 66.5557C63.5205 66.5557 68.316 61.7602 68.316 55.8447C68.316 49.9292 63.5205 45.1337 57.605 45.1337C51.6894 45.1337 46.8939 49.9292 46.8939 55.8447C46.8939 61.7602 51.6894 66.5557 57.605 66.5557ZM57.605 70.5557C65.7296 70.5557 72.316 63.9694 72.316 55.8447C72.316 47.72 65.7296 41.1337 57.605 41.1337C49.4803 41.1337 42.8939 47.72 42.8939 55.8447C42.8939 63.9694 49.4803 70.5557 57.605 70.5557Z" fill="#F64800"/>
<path d="M70.9786 95.9657C70.9786 104.09 64.3923 110.677 56.2676 110.677C48.1429 110.677 41.5565 104.09 41.5565 95.9657C41.5565 87.841 48.1429 81.2546 56.2676 81.2546C64.3923 81.2546 70.9786 87.841 70.9786 95.9657Z" fill="url(#paint5_linear_6_80)"/>
<path fill-rule="evenodd" clip-rule="evenodd" d="M56.2676 106.677C62.1831 106.677 66.9786 101.881 66.9786 95.9657C66.9786 90.0501 62.1831 85.2546 56.2676 85.2546C50.352 85.2546 45.5565 90.0501 45.5565 95.9657C45.5565 101.881 50.352 106.677 56.2676 106.677ZM56.2676 110.677C64.3923 110.677 70.9786 104.09 70.9786 95.9657C70.9786 87.841 64.3923 81.2546 56.2676 81.2546C48.1429 81.2546 41.5565 87.841 41.5565 95.9657C41.5565 104.09 48.1429 110.677 56.2676 110.677Z" fill="#F64800"/>
<defs>
<linearGradient id="paint0_linear_6_80" x1="39.5505" y1="37.1215" x2="81.6776" y2="118.701" gradientUnits="userSpaceOnUse">
<stop stop-color="#FFE589"/>
<stop offset="1" stop-color="#FFCB44"/>
</linearGradient>
<linearGradient id="paint1_linear_6_80" x1="45.5687" y1="126.448" x2="70.8542" y2="134.792" gradientUnits="userSpaceOnUse">
<stop stop-color="#FF5B17"/>
<stop offset="1" stop-color="#C30A00"/>
</linearGradient>
<linearGradient id="paint2_linear_6_80" x1="84.1512" y1="23.6868" x2="79.6715" y2="39.1276" gradientUnits="userSpaceOnUse">
<stop stop-color="#DD8D00"/>
<stop offset="1" stop-color="#973C00"/>
</linearGradient>
<linearGradient id="paint3_linear_6_80" x1="79.0028" y1="77.9113" x2="107.088" y2="85.9355" gradientUnits="userSpaceOnUse">
<stop stop-color="#FF5B17"/>
<stop offset="1" stop-color="#C30A00"/>
</linearGradient>
<linearGradient id="paint4_linear_6_80" x1="42.8939" y1="52.5013" x2="70.9786" y2="60.5255" gradientUnits="userSpaceOnUse">
<stop stop-color="#FF5B17"/>
<stop offset="1" stop-color="#C30A00"/>
</linearGradient>
<linearGradient id="paint5_linear_6_80" x1="41.5565" y1="92.6223" x2="69.6412" y2="100.646" gradientUnits="userSpaceOnUse">
<stop stop-color="#FF5B17"/>
<stop offset="1" stop-color="#C30A00"/>
</linearGradient>
</defs>
</svg>
