<svg class="icon-line" width="164" height="164" viewBox="0 0 164 164" fill="none" xmlns="http://www.w3.org/2000/svg">
<path fill-rule="evenodd" clip-rule="evenodd" d="M37.3938 35.1265C94.967 30.7814 122.442 61.8691 129.005 78.5128C129.28 79.209 129.143 80.0003 128.65 80.5635C125.419 84.2559 112.79 96.6876 87.6337 117.562C62.4526 138.457 46.5989 147.414 41.5996 149.319C40.9681 149.56 40.2578 149.465 39.7113 149.067C38.8776 148.461 38.3637 147.497 38.0159 146.651C37.6395 145.735 37.3218 144.609 37.0456 143.342C36.4915 140.8 36.0522 137.44 35.7026 133.504C35.002 125.617 34.642 115.179 34.508 103.827C34.24 81.1087 34.8764 54.5606 35.5458 37.0445C35.5846 36.0283 36.3798 35.2031 37.3938 35.1265ZM39.4756 38.9917C38.8333 56.452 38.2498 81.9126 38.5078 103.78C38.6413 115.1 39 125.416 39.6869 133.15C40.031 137.024 40.4526 140.19 40.9538 142.49C41.1815 143.534 41.4149 144.35 41.644 144.949C47.4335 142.248 62.2661 133.414 85.0794 114.484C108.337 95.1849 120.711 83.242 124.81 78.8438C118.148 63.6803 92.7164 35.6288 39.4756 38.9917Z" />
<path fill-rule="evenodd" clip-rule="evenodd" d="M71.5964 126.088C71.2846 125.747 70.9571 125.422 70.615 125.112C68.0052 122.75 64.5438 121.311 60.7464 121.311C52.622 121.311 46.0359 127.897 46.0359 136.022C46.0359 137.89 46.3842 139.677 47.0195 141.322C47.1024 141.536 47.1902 141.748 47.2827 141.958C47.7335 142.979 48.297 143.939 48.9575 144.822C54.5628 141.545 62.6993 136.196 73.1928 128.177C72.7229 127.433 72.1881 126.734 71.5964 126.088ZM67.3423 127.582C65.5222 126.157 63.2325 125.311 60.7464 125.311C54.8312 125.311 50.0359 130.106 50.0359 136.022C50.0359 137.131 50.2036 138.199 50.5151 139.203C54.9503 136.432 60.578 132.624 67.3423 127.582Z" />
<path fill-rule="evenodd" clip-rule="evenodd" d="M38.5968 19.0295C34.1309 25.6408 36.3613 31.6059 38.4229 34.3789C90.351 30.6006 120.267 59.847 129.595 76.4334C134.171 75.7613 136.588 73.9253 137.857 72.1025C139.187 70.1933 139.442 68.0364 139.267 66.5618C127.262 46.6914 107.987 34.5961 88.5679 27.5674C69.5599 20.6875 50.5838 18.7272 38.5968 19.0295ZM89.9292 23.8062C109.996 31.0694 130.287 43.7291 142.904 64.8476C143.029 65.0564 143.114 65.2862 143.156 65.5258C143.566 67.8468 143.281 71.3129 141.14 74.3882C138.946 77.5383 135.007 79.9929 128.663 80.5697C127.856 80.6431 127.083 80.2214 126.709 79.5022C118.776 64.2809 89.7464 34.2404 37.7054 38.4457C37.0929 38.4952 36.4916 38.2604 36.0747 37.8088C32.9561 34.4303 28.778 25.4162 35.9443 15.8611C36.3066 15.3781 36.8676 15.0846 37.471 15.0624C49.85 14.6081 69.8674 16.5449 89.9292 23.8062Z" />
<path fill-rule="evenodd" clip-rule="evenodd" d="M93.7119 91.9631C99.6271 91.9631 104.422 87.1678 104.422 81.2525C104.422 75.3373 99.6271 70.542 93.7119 70.542C87.7966 70.542 83.0013 75.3373 83.0013 81.2525C83.0013 87.1678 87.7966 91.9631 93.7119 91.9631ZM93.7119 95.9631C101.836 95.9631 108.422 89.3769 108.422 81.2525C108.422 73.1281 101.836 66.542 93.7119 66.542C85.5874 66.542 79.0013 73.1281 79.0013 81.2525C79.0013 89.3769 85.5874 95.9631 93.7119 95.9631Z" />
<path fill-rule="evenodd" clip-rule="evenodd" d="M57.6042 66.554C63.5194 66.554 68.3147 61.7587 68.3147 55.8434C68.3147 49.9281 63.5194 45.1329 57.6042 45.1329C51.6889 45.1329 46.8936 49.9281 46.8936 55.8434C46.8936 61.7587 51.6889 66.554 57.6042 66.554ZM57.6042 70.554C65.7286 70.554 72.3147 63.9678 72.3147 55.8434C72.3147 47.719 65.7286 41.1329 57.6042 41.1329C49.4798 41.1329 42.8936 47.719 42.8936 55.8434C42.8936 63.9678 49.4798 70.554 57.6042 70.554Z" />
<path fill-rule="evenodd" clip-rule="evenodd" d="M56.2668 106.674C62.1821 106.674 66.9774 101.878 66.9774 95.963C66.9774 90.0478 62.1821 85.2525 56.2668 85.2525C50.3516 85.2525 45.5563 90.0478 45.5563 95.963C45.5563 101.878 50.3516 106.674 56.2668 106.674ZM56.2668 110.674C64.3913 110.674 70.9774 104.087 70.9774 95.963C70.9774 87.8386 64.3913 81.2525 56.2668 81.2525C48.1424 81.2525 41.5563 87.8386 41.5563 95.963C41.5563 104.087 48.1424 110.674 56.2668 110.674Z" />
</svg>
